# xmcd
# 
# Track frame offsets:
#	150
#	17960
#	32384
#	53593
#
# Disc length: 943 seconds
#
# Revision: 1
# Processed by: cddbd v1.4PL0 Copyright (c) Steve Scherf et al.
# Submitted via: Audio-CD-Archiv 2.10.446
#
DISCID=2403ad04
DTITLE=Various Artist - THE STARFICHTERS
DYEAR=1900
DGENRE=country
TTITLE0=PETROL SONG
TTITLE1=TAKE ME HOME
TTITLE2=THE BUG
TTITLE3=PETRL SONG (INSTRUMENTAL)
EXTD=
EXTT0=
EXTT1=
EXTT2=
EXTT3=
PLAYORDER=
